<?xml version="1.0" encoding="UTF-8" standalone="no"?>
<svg xmlns:rdf="http://www.w3.org/1999/02/22-rdf-syntax-ns#" xmlns="http://www.w3.org/2000/svg" fill-rule="evenodd" stroke-linejoin="round" viewBox="0 0 100 100" height="100%" width="100%" version="1.1" stroke-miterlimit="1.4142" clip-rule="evenodd" xmlns:cc="http://creativecommons.org/ns#" xmlns:dc="http://purl.org/dc/elements/1.1/" xml:space="preserve"><metadata><rdf:RDF><cc:Work rdf:about=""><dc:format>image/svg+xml</dc:format><dc:type rdf:resource="http://purl.org/dc/dcmitype/StillImage"/><dc:title/></cc:Work></rdf:RDF></metadata><g fill-rule="nonzero"><path fill="#fc0" d="m36.429 34.919c0.114-0.208 0.213-0.318 0.236-0.444 0.078-0.408 0.146-0.82 0.187-1.234 0.135-1.336 0.254-2.674 0.384-4.01 0.224-2.306 0.423-4.613 0.513-6.928 0.021-0.555 0.06-1.11 0.09-1.665 0.177-3.195 0.204-6.389-0.137-9.577-0.093-0.876-0.238-1.744-0.531-2.579-0.076-0.216-0.19-0.418-0.299-0.621-0.086-0.162-0.338-0.224-0.478-0.111-0.178 0.144-0.372 0.282-0.504 0.463-0.33 0.455-0.517 0.983-0.668 1.519-0.29 1.028-0.475 2.079-0.548 3.142-0.202 2.963-0.135 5.927 0.072 8.887 0.101 1.432 0.286 2.857 0.417 4.287 0.226 2.445 0.62 4.868 0.964 7.298 0.07 0.497 0.188 0.987 0.302 1.573"/><path fill="#fc0" d="m70.529 78.831c0.365-1.213 0.458-2.375 0.549-3.525 0.291-3.664 0.164-7.324-0.252-10.974-0.1-0.878-0.313-1.735-0.609-2.567-0.186-0.525-0.423-1.03-0.848-1.419-0.197-0.181-0.574-0.217-0.767-0.046-0.173 0.153-0.318 0.339-0.498 0.483-0.714 0.568-1.766 0.199-1.978-0.695-0.107-0.451-0.184-0.91-0.266-1.366-0.665-3.676-1.853-7.177-3.54-10.507-1.179-2.328-2.602-4.494-4.356-6.435-1.061-1.175-2.227-2.232-3.551-3.107-0.934-0.617-1.922-1.122-3.003-1.431-1.718-0.492-3.39-0.423-4.997 0.421-0.246 0.129-0.496 0.25-0.75 0.362-0.243 0.107-0.601 0-0.736-0.231-0.28-0.48-0.548-0.968-0.816-1.455-0.379-0.691-0.723-1.403-1.135-2.075-0.844-1.376-2.308-1.999-3.948-1.725-0.046 0.007-0.101 0.013-0.131 0.041-0.097 0.092-0.211 0.18-0.268 0.295-0.059 0.12-0.061 0.269-0.085 0.405-0.376 2.1-0.747 4.2-1.13 6.298-0.049 0.27-0.137 0.537-0.238 0.794-0.093 0.236-0.302 0.338-0.553 0.343-0.239 0.005-0.481-0.138-0.556-0.342-0.096-0.26-0.197-0.521-0.26-0.791-0.305-1.309-0.6-2.621-0.894-3.932-0.091-0.403-0.149-0.815-0.409-1.207-0.166 0.075-0.348 0.125-0.492 0.228-0.415 0.298-0.826 0.602-1.217 0.929-3.598 3.013-5.132 5.107-6.812 9.466-0.654 1.698-1.065 3.455-1.269 5.259-0.137 1.205-0.1 2.408 0.179 3.597 0.128 0.546 0.315 1.067 0.605 1.547 0.458 0.761 1.13 1.222 2.004 1.361 1.458 0.232 2.872 0.094 4.197-0.598 0.451-0.236 0.897-0.492 1.305-0.795 1.694-1.258 3.127-2.777 4.194-4.596 1.597-2.723 3.422-5.298 5.088-7.976 0.096-0.155 0.235-0.283 0.361-0.418 0.091-0.098 0.377-0.107 0.525-0.027 0.213 0.114 0.344 0.4 0.246 0.582-0.263 0.49-0.539 0.973-0.808 1.459-2 3.611-4.032 7.204-6.111 10.77-0.327 0.561-0.636 1.132-0.94 1.705-0.104 0.199-0.165 0.421-0.246 0.632 0.089 0.033 0.134 0.067 0.176 0.063 0.227-0.023 0.456-0.042 0.68-0.085 1.447-0.278 2.859-0.191 4.23 0.383 0.696 0.291 1.319 0.686 1.799 1.271 0.173 0.21 0.304 0.464 0.408 0.717 0.097 0.238-0.028 0.451-0.2 0.624-0.165 0.165-0.468 0.201-0.638 0.075-0.149-0.109-0.305-0.215-0.431-0.347-0.824-0.861-1.865-1.171-3.016-1.207-1.609-0.049-2.999 0.508-4.204 1.55-0.675 0.582-1.201 1.287-1.641 2.058-0.509 0.891-0.876 1.842-1.144 2.83-0.414 1.529-0.601 3.091-0.666 4.672-0.125 3.08 0.117 6.119 0.941 9.097 0.775 2.805 2.013 5.381 3.863 7.643 2.107 2.576 4.707 4.443 7.904 5.446 0.977 0.307 1.992 0.424 2.989 0.626 0.048 0.01 0.178-0.112 0.171-0.159-0.017-0.134-0.078-0.264-0.137-0.388-0.598-1.261-0.503-2.525 0.01-3.776 0.373-0.91 0.947-1.698 1.617-2.416 0.893-0.957 1.921-1.744 3.032-2.429 1.509-0.928 3.12-1.63 4.797-2.192 1.496-0.502 3.021-0.9 4.555-1.265 2.663-0.633 5.347-1.151 8.088-1.332 0.641-0.042 1.292-0.047 2.033-0.196"/><g stroke-linejoin="round" stroke-miterlimit="1.4142" clip-rule="evenodd"><path fill="#1e1c1a" d="m41.826 28.402c0.016 0.001 0.032 0.003 0.047 0.004-0.021 0.462-0.044 0.924-0.063 1.387-0.008 0.184-0.018 0.37-0.007 0.554 0.011 0.196 0.108 0.361 0.293 0.431 0.258 0.097 0.526 0.171 0.793 0.243 0.178 0.049 0.345-0.063 0.418-0.264 0.064-0.174 0.135-0.346 0.184-0.523 1.122-4.057 2.149-8.137 2.748-12.309 0.243-1.694 0.411-3.397 0.374-5.116-0.02-0.884-0.128-1.754-0.309-2.614-0.085-0.404-0.251-0.791-0.382-1.186-0.015-0.043-0.046-0.08-0.066-0.122-0.121-0.261-0.275-0.402-0.378-0.332-0.107 0.073-0.223 0.156-0.286 0.264-0.495 0.845-0.792 1.771-1.062 2.704-0.514 1.78-0.859 3.596-1.133 5.426-0.261 1.738-0.496 3.48-0.639 5.233-0.169 2.074-0.354 4.147-0.532 6.22m-3.582 64.368c0.327 0 0.603 0.002 0.879-0.003 0.044 0 0.103-0.016 0.126-0.047s0.032-0.116 0.012-0.131c-0.179-0.134-0.356-0.276-0.551-0.384-3.154-1.746-5.585-4.222-7.413-7.312-0.188-0.318-0.363-0.644-0.553-0.961-0.071-0.116-0.15-0.241-0.257-0.32-0.579-0.435-1.222-0.657-1.95-0.478-1.068 0.262-1.796 0.937-2.194 1.943-0.559 1.411-0.379 2.811 0.162 4.186 0.121 0.307 0.334 0.563 0.602 0.748 0.379 0.262 0.76 0.537 1.177 0.723 0.589 0.262 1.202 0.48 1.82 0.661 2.675 0.781 5.43 1.094 8.14 1.375m-1.815-57.851c0.114-0.208 0.213-0.318 0.236-0.444 0.078-0.408 0.146-0.82 0.187-1.234 0.135-1.336 0.254-2.674 0.384-4.01 0.224-2.306 0.423-4.613 0.513-6.928 0.021-0.555 0.06-1.11 0.09-1.665 0.177-3.195 0.204-6.389-0.137-9.577-0.093-0.876-0.238-1.744-0.531-2.579-0.076-0.216-0.19-0.418-0.299-0.621-0.086-0.162-0.338-0.224-0.478-0.111-0.178 0.144-0.372 0.282-0.504 0.463-0.33 0.455-0.517 0.983-0.668 1.519-0.29 1.028-0.475 2.079-0.548 3.142-0.202 2.963-0.135 5.927 0.072 8.887 0.101 1.432 0.286 2.857 0.417 4.287 0.226 2.445 0.62 4.868 0.964 7.298 0.07 0.497 0.188 0.987 0.302 1.573m15.916 58.411c1.067-0.001 2.125-0.112 3.186-0.231 3.566-0.4 7.01-1.281 10.341-2.6 1.596-0.632 3.131-1.394 4.58-2.32 0.979-0.626 1.897-1.328 2.721-2.149 0.561-0.559 1.065-1.165 1.447-1.859 0.155-0.281 0.273-0.587 0.37-0.894 0.12-0.379-0.039-0.781-0.372-0.958-0.285-0.151-0.578-0.309-0.886-0.385-0.538-0.133-1.087-0.25-1.637-0.294-1.62-0.128-3.245-0.1-4.859 0.07-3.414 0.359-6.775 1.018-10.095 1.885-1.572 0.411-3.094 0.967-4.544 1.705-1.078 0.548-2.092 1.194-2.987 2.013-0.585 0.535-1.105 1.125-1.489 1.822-0.224 0.407-0.395 0.834-0.45 1.304-0.122 1.042 0.245 1.807 1.16 2.32 0.614 0.344 1.279 0.544 1.986 0.568 0.509 0.018 1.019 0.003 1.528 0.003m18.184-14.499c0.365-1.213 0.458-2.375 0.549-3.525 0.291-3.664 0.164-7.324-0.252-10.974-0.1-0.878-0.313-1.735-0.609-2.567-0.186-0.525-0.423-1.03-0.848-1.419-0.197-0.181-0.574-0.217-0.767-0.046-0.173 0.153-0.318 0.339-0.498 0.483-0.714 0.568-1.766 0.199-1.978-0.695-0.107-0.451-0.184-0.91-0.266-1.366-0.665-3.676-1.853-7.177-3.54-10.507-1.179-2.328-2.602-4.494-4.356-6.435-1.061-1.175-2.227-2.232-3.551-3.107-0.934-0.617-1.922-1.122-3.003-1.431-1.718-0.492-3.39-0.423-4.997 0.421-0.246 0.129-0.496 0.25-0.75 0.362-0.243 0.107-0.601 0-0.736-0.231-0.28-0.48-0.548-0.968-0.816-1.455-0.379-0.691-0.723-1.403-1.135-2.075-0.844-1.376-2.308-1.999-3.948-1.725-0.046 0.007-0.101 0.013-0.131 0.041-0.097 0.092-0.211 0.18-0.268 0.295-0.059 0.12-0.061 0.269-0.085 0.405-0.376 2.1-0.747 4.2-1.13 6.298-0.049 0.27-0.137 0.537-0.238 0.794-0.093 0.236-0.302 0.338-0.553 0.343-0.239 0.005-0.481-0.138-0.556-0.342-0.096-0.26-0.197-0.521-0.26-0.791-0.305-1.309-0.6-2.621-0.894-3.932-0.091-0.403-0.149-0.815-0.409-1.207-0.166 0.075-0.348 0.125-0.492 0.228-0.415 0.298-0.826 0.602-1.217 0.929-3.598 3.013-5.132 5.107-6.812 9.466-0.654 1.698-1.065 3.455-1.269 5.259-0.137 1.205-0.1 2.408 0.179 3.597 0.128 0.546 0.315 1.067 0.605 1.547 0.458 0.761 1.13 1.222 2.004 1.361 1.458 0.232 2.872 0.094 4.197-0.598 0.451-0.236 0.897-0.492 1.305-0.795 1.694-1.258 3.127-2.777 4.194-4.596 1.597-2.723 3.422-5.298 5.088-7.976 0.096-0.155 0.235-0.283 0.361-0.418 0.091-0.098 0.377-0.107 0.525-0.027 0.213 0.114 0.344 0.4 0.246 0.582-0.263 0.49-0.539 0.973-0.808 1.459-2 3.611-4.032 7.204-6.111 10.77-0.327 0.561-0.636 1.132-0.94 1.705-0.104 0.199-0.165 0.421-0.246 0.632 0.089 0.033 0.134 0.067 0.176 0.063 0.227-0.023 0.456-0.042 0.68-0.085 1.447-0.278 2.859-0.191 4.23 0.383 0.696 0.291 1.319 0.686 1.799 1.271 0.173 0.21 0.304 0.464 0.408 0.717 0.097 0.238-0.028 0.451-0.2 0.624-0.165 0.165-0.468 0.201-0.638 0.075-0.149-0.109-0.305-0.215-0.431-0.347-0.824-0.861-1.865-1.171-3.016-1.207-1.609-0.049-2.999 0.508-4.204 1.55-0.675 0.582-1.201 1.287-1.641 2.058-0.509 0.891-0.876 1.842-1.144 2.83-0.414 1.529-0.601 3.091-0.666 4.672-0.125 3.08 0.117 6.119 0.941 9.097 0.775 2.805 2.013 5.381 3.863 7.643 2.107 2.576 4.707 4.443 7.904 5.446 0.977 0.307 1.992 0.424 2.989 0.626 0.048 0.01 0.178-0.112 0.171-0.159-0.017-0.134-0.078-0.264-0.137-0.388-0.598-1.261-0.503-2.525 0.01-3.776 0.373-0.91 0.947-1.698 1.617-2.416 0.893-0.957 1.921-1.744 3.032-2.429 1.509-0.928 3.12-1.63 4.797-2.192 1.496-0.502 3.021-0.9 4.555-1.265 2.663-0.633 5.347-1.151 8.088-1.332 0.641-0.042 1.292-0.047 2.033-0.196m-30.193-48.266c0.018-0.235 0.06-0.462 0.05-0.687-0.144-3.155 0.023-6.306 0.093-9.458 0.035-1.581 0.229-3.145 0.392-4.711 0.152-1.474 0.385-2.942 0.736-4.386 0.275-1.128 0.595-2.239 1.076-3.299 0.289-0.637 0.634-1.238 1.084-1.775 0.3-0.357 0.639-0.671 1.048-0.902 0.44-0.25 0.879-0.264 1.324-0.015 0.534 0.3 0.967 0.714 1.343 1.193 0.732 0.935 1.127 2.015 1.357 3.165 0.293 1.467 0.33 2.95 0.199 4.434-0.166 1.895-0.471 3.769-0.891 5.626-0.841 3.714-2.013 7.327-3.274 10.914-0.138 0.393-0.281 0.784-0.436 1.214 0.088 0.146 0.159 0.321 0.277 0.452 0.875 0.97 1.323 2.108 1.379 3.409 0.004 0.085 0.064 0.168 0.098 0.253 0.236 0.095 0.452-0.003 0.657-0.092 1.273-0.551 2.605-0.609 3.96-0.496 0.699 0.058 1.368 0.242 2.03 0.457 1.38 0.448 2.637 1.135 3.819 1.967 1.409 0.992 2.67 2.152 3.815 3.439 2.906 3.267 4.993 7.012 6.441 11.122 0.492 1.4 0.888 2.829 1.179 4.286 0.062 0.313 0.095 0.644 0.399 0.924 0.133 0.013 0.314 0.042 0.496 0.048 1.059 0.033 1.837 0.57 2.462 1.374 0.49 0.631 0.807 1.353 1.031 2.112 0.328 1.116 0.554 2.255 0.583 3.419 0.042 1.715 0.067 3.431 0.067 5.146-0.001 2.745-0.291 5.461-0.88 8.143-0.02 0.091-0.026 0.185-0.048 0.274-0.165 0.7-0.123 0.886 0.685 0.985 0.55 0.068 1.102 0.172 1.631 0.335 0.482 0.148 0.964 0.348 1.395 0.61 1.548 0.944 1.986 2.362 1.488 4.083-0.181 0.627-0.509 1.192-0.877 1.731-0.741 1.082-1.656 1.996-2.684 2.802-1.246 0.979-2.601 1.778-4.026 2.465-2.646 1.273-5.427 2.141-8.295 2.742-3.283 0.687-6.6 0.969-9.954 0.853-1.074-0.037-2.127-0.14-3.165-0.497-0.782 0.279-1.612 0.369-2.441 0.435-3.053 0.241-6.109 0.425-9.172 0.301-2.18-0.088-4.349-0.277-6.479-0.787-0.949-0.228-1.874-0.528-2.762-0.931-0.677-0.307-1.316-0.684-1.887-1.168-0.84-0.713-1.386-1.591-1.622-2.683-0.289-1.338-0.344-2.662 0.034-3.989 0.312-1.097 0.862-2.049 1.74-2.79 0.765-0.647 1.64-1.04 2.659-1.062 0.278-0.007 0.556-0.001 0.834-0.004 0.133-0.002 0.269-0.154 0.235-0.266-0.106-0.355-0.216-0.709-0.325-1.063-1.004-3.274-1.363-6.616-1.081-10.031 0.118-1.436 0.302-2.856 0.658-4.254 0.287-1.128 0.678-2.217 1.199-3.255 0.609-1.214 1.363-2.339 2.425-3.189 0.701-0.562 1.03-1.283 1.273-2.088 0.008-0.027-0.037-0.081-0.07-0.107-0.029-0.023-0.086-0.046-0.112-0.033-0.287 0.147-0.575 0.293-0.855 0.453-1.578 0.908-3.275 1.247-5.084 1.087-1.857-0.164-3.228-1.054-4.11-2.696-0.695-1.293-0.97-2.697-1.037-4.146-0.096-2.106 0.226-4.16 0.8-6.181 0.509-1.792 1.226-3.494 2.168-5.104 0.755-1.291 1.672-2.448 2.742-3.489 1.505-1.462 3.174-2.705 4.993-3.749 0.281-0.162 0.565-0.319 0.842-0.487 0.167-0.102 0.273-0.255 0.244-0.46-0.06-0.413-0.119-0.826-0.199-1.235-0.559-2.867-1.027-5.747-1.384-8.648-0.351-2.858-0.554-5.721-0.507-8.602 0.026-1.629 0.185-3.239 0.575-4.822 0.178-0.724 0.438-1.415 0.803-2.067 0.275-0.491 0.617-0.926 1.044-1.292 0.622-0.533 1.34-0.805 2.163-0.821 0.794-0.016 1.442 0.281 1.976 0.856 0.452 0.486 0.739 1.067 0.943 1.687 0.305 0.927 0.499 1.882 0.582 2.855 0.19 2.221 0.286 4.443 0.104 6.67-0.03 0.369-0.046 0.741-0.055 1.112-0.05 2.042-0.279 4.069-0.514 6.096-0.225 1.934-0.465 3.866-0.693 5.799-0.022 0.181-0.028 0.369-0.005 0.548 0.009 0.065 0.119 0.161 0.189 0.166 0.375 0.031 0.728-0.061 1.105-0.225"/><path d="m32.81 42.178c-0.095 0.785-0.179 1.473-0.263 2.162-0.061 0.505-0.115 1.011-0.187 1.515-0.025 0.18-0.092 0.354-0.145 0.529-0.028 0.091-0.294 0.17-0.367 0.114-0.073-0.055-0.166-0.096-0.214-0.168-0.757-1.142-1.208-2.394-1.278-3.764-0.021-0.409 0.049-0.83 0.128-1.235 0.083-0.423 0.34-0.752 0.693-1.004 0.587-0.42 1.395-0.133 1.516 0.566 0.078 0.452 0.086 0.916 0.117 1.285" fill="#1e1c1a"/><g fill="#fc0"><path d="m41.779 28.398c0.016 0.001 0.032 0.003 0.047 0.004-0.021 0.462-0.044 0.924-0.063 1.387-0.008 0.184-0.018 0.37-0.007 0.554 0.011 0.196 0.108 0.361 0.293 0.431 0.258 0.097 0.526 0.171 0.793 0.243 0.178 0.049 0.345-0.063 0.418-0.264 0.064-0.174 0.135-0.346 0.184-0.523 1.122-4.057 2.149-8.137 2.748-12.309 0.243-1.694 0.411-3.397 0.374-5.116-0.02-0.884-0.128-1.754-0.309-2.614-0.085-0.404-0.251-0.791-0.382-1.186-0.015-0.043-0.046-0.08-0.066-0.122-0.121-0.261-0.275-0.402-0.378-0.332-0.107 0.073-0.223 0.156-0.286 0.264-0.495 0.845-0.792 1.771-1.062 2.704-0.514 1.78-0.859 3.596-1.133 5.426-0.261 1.738-0.496 3.48-0.639 5.233-0.169 2.074-0.354 4.147-0.532 6.22"/><path d="m52.345 93.33c1.067-0.001 2.125-0.112 3.186-0.231 3.566-0.4 7.01-1.281 10.341-2.6 1.596-0.632 3.131-1.394 4.58-2.32 0.979-0.626 1.897-1.328 2.721-2.149 0.561-0.559 1.065-1.165 1.447-1.859 0.155-0.281 0.273-0.587 0.37-0.894 0.12-0.379-0.039-0.781-0.372-0.958-0.285-0.151-0.578-0.309-0.886-0.385-0.538-0.133-1.087-0.25-1.637-0.294-1.62-0.128-3.245-0.1-4.859 0.07-3.414 0.359-6.775 1.018-10.095 1.885-1.572 0.411-3.094 0.967-4.544 1.705-1.078 0.548-2.092 1.194-2.987 2.013-0.585 0.535-1.105 1.125-1.489 1.822-0.224 0.407-0.395 0.834-0.45 1.304-0.122 1.042 0.245 1.807 1.16 2.32 0.614 0.344 1.279 0.544 1.986 0.568 0.509 0.018 1.019 0.003 1.528 0.003"/><path d="m38.244 92.77c0.327 0 0.603 0.002 0.879-0.003 0.044 0 0.103-0.016 0.126-0.047s0.032-0.116 0.012-0.131c-0.179-0.134-0.356-0.276-0.551-0.384-3.154-1.746-5.585-4.222-7.413-7.312-0.188-0.318-0.363-0.644-0.553-0.961-0.071-0.116-0.15-0.241-0.257-0.32-0.579-0.435-1.222-0.657-1.95-0.478-1.068 0.262-1.796 0.937-2.194 1.943-0.559 1.411-0.379 2.811 0.162 4.186 0.121 0.307 0.334 0.563 0.602 0.748 0.379 0.262 0.76 0.537 1.177 0.723 0.589 0.262 1.202 0.48 1.82 0.661 2.675 0.781 5.43 1.094 8.14 1.375"/></g></g></g></svg>
